<?xml version="1.0" standalone="no"?>
<!DOCTYPE svg PUBLIC "-//W3C//DTD SVG 20010904//EN"
 "http://www.w3.org/TR/2001/REC-SVG-20010904/DTD/svg10.dtd">
<svg version="1.0" xmlns="http://www.w3.org/2000/svg"
 width="632.000000pt" height="632.000000pt" viewBox="0 0 632.000000 632.000000"
 preserveAspectRatio="xMidYMid meet">
<metadata>
Created by potrace 1.14, written by Peter Selinger 2001-2017
</metadata>
<g transform="translate(0.000000,632.000000) scale(0.100000,-0.100000)"
fill="#000000" stroke="none">
<path d="M767 6094 c-1 -1 -45 -4 -97 -7 -86 -5 -159 -19 -185 -35 -5 -4 -15
-7 -21 -8 -18 -3 -118 -62 -141 -84 -12 -11 -24 -20 -27 -20 -17 0 -136 -146
-136 -166 0 -8 -4 -14 -10 -14 -5 0 -10 -9 -10 -20 0 -11 -3 -20 -8 -20 -6 0
-32 -79 -48 -150 -3 -14 -7 -172 -8 -352 l-2 -328 26 -1 c41 -1 180 -1 252 0
l67 1 0 303 c0 166 2 312 5 324 21 96 93 179 184 212 48 18 148 19 2564 19
2504 0 2513 0 2568 -21 72 -27 142 -98 166 -169 17 -50 18 -148 19 -1698 0
-1393 -2 -1652 -14 -1690 -29 -93 -108 -172 -196 -196 -16 -4 -264 -9 -550
-10 -286 -1 -525 -3 -532 -3 -12 -1 -12 -4 6 -81 5 -25 12 -56 15 -70 5 -25
54 -248 62 -285 2 -11 7 -33 10 -50 2 -16 9 -46 14 -65 5 -19 11 -46 14 -60 2
-14 9 -44 14 -68 6 -23 11 -46 11 -50 1 -4 4 -16 6 -27 2 -11 16 -76 30 -145
42 -203 76 -354 81 -362 14 -21 -16 -2 -61 39 -27 25 -94 87 -149 137 -54 50
-110 102 -125 116 -15 14 -78 72 -141 130 -63 58 -127 117 -144 133 -16 15
-68 63 -116 107 -48 44 -100 92 -116 107 -73 68 -238 220 -264 243 l-29 25
-1553 0 -1553 0 -60 29 c-67 33 -107 72 -134 131 -28 60 -33 93 -33 230 l0
125 -172 -2 -171 -3 0 -140 c-1 -251 47 -388 184 -525 94 -94 148 -124 325
-180 17 -6 649 -10 1533 -10 l1505 0 50 -48 c28 -26 68 -63 89 -82 20 -19 76
-71 124 -115 48 -44 105 -96 125 -115 21 -19 79 -73 130 -120 50 -47 106 -98
124 -115 37 -34 214 -197 255 -234 14 -13 72 -67 129 -120 56 -52 119 -110
140 -129 62 -57 129 -82 214 -79 83 4 134 25 190 81 78 78 98 171 67 316 -10
47 -28 130 -39 185 -12 55 -24 109 -26 120 -8 41 -45 212 -59 270 -8 33 -17
76 -20 95 -3 19 -10 51 -15 70 -5 19 -12 51 -15 70 -3 19 -8 42 -10 50 -4 15
-12 50 -21 102 l-5 28 323 0 c178 0 334 2 348 5 14 3 40 8 59 11 96 19 217 83
290 155 90 90 135 164 177 289 18 52 19 135 20 1752 2 1415 0 1707 -11 1757
-16 66 -64 191 -74 191 -3 0 -12 13 -19 29 -18 42 -130 150 -195 189 -71 43
-182 81 -255 88 -47 5 -4940 12 -4945 8z"/>
<path d="M3733 4642 c-22 -2 -32 -8 -31 -20 0 -9 -3 -28 -6 -42 -4 -14 -9 -40
-12 -58 -3 -19 -21 -109 -40 -200 -20 -92 -38 -180 -40 -197 -3 -16 -14 -75
-26 -130 -11 -55 -22 -111 -24 -125 -2 -14 -7 -36 -10 -50 -3 -14 -8 -34 -10
-45 -2 -11 -15 -76 -29 -145 -14 -69 -27 -134 -29 -145 -2 -11 -6 -33 -10 -50
-3 -16 -9 -41 -12 -55 -3 -14 -7 -36 -8 -50 -2 -14 -11 -59 -19 -100 -9 -41
-19 -91 -22 -110 -9 -46 -13 -65 -15 -65 -1 0 -3 -9 -5 -20 -1 -11 -6 -37 -10
-57 -6 -38 -6 -38 27 -39 37 -1 258 -1 299 0 26 1 29 7 40 88 1 2 7 29 14 60
7 32 16 76 19 98 6 42 25 63 131 151 106 88 98 84 110 64 50 -89 80 -136 87
-138 4 -2 8 -8 8 -13 0 -7 172 -291 186 -308 4 -5 404 -4 409 1 2 2 -14 31
-36 65 -21 34 -39 67 -39 72 0 5 -4 11 -8 13 -4 2 -29 39 -55 83 -26 44 -53
89 -60 99 -62 101 -77 126 -77 135 0 5 -3 11 -7 13 -7 3 -133 204 -133 212 0
2 35 32 78 67 42 35 79 66 82 69 3 3 84 71 180 150 195 161 219 182 268 225
l33 30 -230 -2 -231 -1 -42 -33 c-24 -19 -82 -65 -129 -104 -47 -38 -105 -86
-129 -105 -24 -19 -51 -42 -60 -50 -9 -8 -32 -27 -52 -42 -20 -15 -42 -33 -50
-40 -12 -12 -94 -78 -127 -102 -11 -8 -13 -8 -8 0 3 6 8 21 10 35 3 13 19 94
36 180 17 85 34 166 36 180 3 13 8 37 11 53 2 16 18 93 34 170 43 210 52 260
54 300 l1 28 -85 -1 c-47 0 -108 -2 -136 -2 -28 -1 -55 0 -60 2 -5 3 -23 3
-41 1z"/>
<path d="M1344 4178 c-3 -4 -9 -6 -14 -3 -13 8 -131 -32 -190 -65 -88 -49 -92
-52 -156 -115 -137 -136 -202 -293 -208 -504 -7 -203 65 -359 216 -474 32 -25
133 -71 183 -84 28 -8 224 -9 260 -1 55 11 137 47 192 83 l54 36 -6 -43 c-4
-23 -9 -46 -11 -50 -10 -16 29 -20 181 -22 l154 -1 11 50 c7 28 13 61 16 75 2
14 7 36 10 50 3 14 8 36 10 50 2 14 9 45 14 70 10 46 17 80 26 135 6 29 21
107 27 132 2 7 6 15 9 19 4 3 5 11 2 18 -3 7 2 41 11 77 9 35 17 75 20 89 5
35 36 201 42 225 15 62 23 105 28 143 4 24 10 55 15 68 6 15 6 26 -1 29 -8 5
-199 9 -321 6 -27 -1 -33 -9 -42 -61 -2 -14 -7 -41 -11 -61 l-7 -36 -52 52
c-59 59 -131 96 -224 114 -69 13 -230 13 -238 -1z m236 -293 c79 -17 142 -69
175 -145 15 -34 20 -66 20 -135 -1 -122 -34 -208 -113 -292 -30 -32 -114 -80
-154 -87 -13 -3 -25 -5 -28 -6 -18 -6 -111 -4 -140 3 -134 33 -202 121 -203
261 0 141 39 243 120 317 87 79 206 109 323 84z"/>
<path d="M2723 4170 c-194 -46 -312 -126 -370 -247 -46 -98 -49 -201 -10 -294
17 -42 84 -107 135 -132 45 -21 154 -56 202 -63 19 -3 64 -13 100 -21 36 -8
72 -16 81 -18 32 -6 84 -32 98 -48 18 -22 6 -81 -21 -107 -38 -35 -104 -48
-234 -45 -67 1 -126 5 -131 8 -5 3 -24 9 -42 12 -52 9 -154 46 -183 66 -14 11
-32 19 -40 19 -12 0 -138 -226 -138 -249 0 -13 86 -57 149 -77 114 -37 243
-53 391 -49 154 4 162 5 254 30 120 32 262 129 301 205 53 103 61 240 20 321
-18 34 -60 79 -100 106 -42 29 -180 75 -260 87 -99 15 -222 54 -244 77 -23 25
-21 80 4 106 45 44 86 56 200 57 153 1 233 -14 335 -63 46 -22 60 -20 60 9 0
10 3 20 8 22 7 3 102 193 102 204 0 5 -81 42 -125 56 -42 13 -85 23 -145 35
-14 2 -92 6 -175 7 -117 3 -166 0 -222 -14z"/>
</g>
</svg>
